<svg width="1057" height="617" viewBox="0 0 1057 617" fill="none" xmlns="http://www.w3.org/2000/svg">
<path d="M418.991 523.741C415.42 531.202 404.707 538.663 392.209 538.663C363.046 538.663 339.835 510.312 339.835 464.802C339.835 419.291 364.832 387.956 391.018 387.956C415.42 387.956 420.776 402.132 423.752 405.862L427.323 390.941H452.32V452.865H422.562C421.967 435.705 413.635 426.006 403.517 426.006C389.828 426.006 380.901 444.658 380.901 465.548C380.901 487.184 389.233 504.343 403.517 504.343C413.039 504.343 417.205 499.867 419.586 493.898V484.946H409.468V462.564H464.223V484.946H457.676V537.171H424.347L418.991 523.741Z" fill="white"/>
<path d="M468.984 432.721H509.455V483.453C509.455 501.359 511.836 509.566 518.382 509.566C524.334 509.566 529.095 502.851 529.095 493.898V460.325H517.787V432.721H561.234V509.566H569.566V537.17H538.023L533.261 523.741C529.69 528.964 523.739 540.155 509.455 540.155C484.458 540.155 476.126 523.741 476.126 489.422V460.325H468.984V432.721V432.721Z" fill="white"/>
<path d="M623.13 537.171H576.112V509.566H583.254V459.579H576.112V432.721H607.656L612.417 446.15C616.583 436.451 621.344 428.99 638.009 428.99V464.802C623.13 464.802 614.202 469.278 614.202 487.93V509.566H622.535V537.171H623.13Z" fill="white"/>
<path d="M643.365 432.721H683.836V483.453C683.836 501.359 686.216 509.566 692.763 509.566C698.715 509.566 703.476 502.851 703.476 493.898V460.325H692.763V432.721H736.21V509.566H744.542V537.17H712.998L708.237 523.741C704.666 528.964 698.715 540.155 684.431 540.155C659.434 540.155 651.102 523.741 651.102 489.422V460.325H643.96V432.721H643.365Z" fill="white"/>
<path d="M335.073 191.74C320.789 192.486 313.052 193.232 311.267 193.232C308.291 193.232 304.72 190.994 301.744 185.771C298.769 180.549 296.983 175.326 296.983 170.104C296.983 161.897 316.028 158.167 354.118 158.167C373.758 158.167 388.042 160.405 396.97 165.627C405.897 170.85 410.658 176.818 410.658 184.279C410.658 186.517 409.468 188.755 407.682 190.248C405.897 192.486 402.921 193.232 399.945 193.232C396.97 193.232 391.018 193.232 383.281 192.486C374.949 191.74 367.807 191.74 361.26 191.74C361.855 193.978 361.855 196.216 361.855 198.454C361.855 201.439 361.26 206.661 359.475 214.122C357.689 221.582 355.904 232.774 352.928 246.949C349.952 261.124 346.976 277.538 344.001 297.682C340.43 317.826 338.644 329.017 336.859 332.747C335.073 336.477 334.478 338.715 333.288 338.715C330.312 338.715 326.741 335.731 322.575 329.017C318.409 322.302 316.028 317.079 316.028 313.349C316.028 309.619 319.004 292.459 324.36 263.362C330.312 234.266 333.883 210.391 335.073 191.74Z" fill="white"/>
<path d="M410.658 252.918L409.468 224.567C409.468 214.868 411.849 210.392 416.61 210.392C418.991 210.392 421.966 211.884 424.347 214.122C426.728 216.361 429.108 220.837 430.299 226.059C435.06 220.837 439.821 217.107 445.177 214.122C450.534 211.138 455.295 209.646 459.461 209.646C468.984 209.646 474.34 212.63 474.34 218.599C474.34 221.583 473.745 223.821 473.15 225.313C472.555 226.805 471.364 227.552 471.364 228.298C470.769 229.044 470.174 229.79 468.984 231.282C467.793 232.028 467.198 233.52 466.603 233.52C463.627 235.758 461.247 237.997 460.056 238.743C454.105 243.219 448.748 249.188 444.582 255.902C440.416 262.617 436.845 271.57 435.06 283.507C431.489 302.905 427.918 317.08 424.347 326.779C420.776 336.478 417.205 340.954 413.039 340.954C408.873 340.954 405.897 338.716 403.516 333.493C401.136 328.271 400.541 323.795 400.541 319.318C400.541 314.842 401.731 308.127 404.707 299.174C407.087 290.221 408.873 282.761 410.063 276.046C410.658 268.585 410.658 261.125 410.658 252.918Z" fill="white"/>
<path d="M557.662 268.585C560.043 271.57 561.233 273.808 561.233 276.046C561.233 278.284 560.638 282.761 558.853 289.475C557.067 296.19 556.472 301.413 555.877 305.143C555.282 308.873 554.686 311.858 554.686 314.096C554.091 316.334 554.091 317.826 554.091 319.318C554.091 320.81 553.496 322.303 553.496 323.795C553.496 325.287 552.901 326.779 552.901 328.271C552.901 329.017 552.306 330.509 552.306 332.001C551.711 333.494 551.711 334.24 551.116 334.986C550.52 335.732 550.52 336.478 549.925 337.224C549.33 338.716 547.545 339.462 545.759 339.462C543.974 339.462 541.593 337.224 538.617 332.747C535.641 328.271 533.856 322.303 532.666 315.588C520.167 332.001 509.454 339.462 501.122 339.462C495.171 339.462 489.219 335.732 482.672 327.525C476.126 319.318 472.555 311.858 472.555 303.651C472.555 295.444 475.53 284.253 480.887 269.331C486.838 254.41 494.576 240.981 504.693 228.298C514.811 215.614 524.333 209.646 534.451 209.646C539.808 209.646 546.354 214.122 554.091 221.583C561.233 229.79 565.399 237.25 565.399 243.965C563.614 252.172 561.828 259.633 557.662 268.585ZM499.337 308.127C504.693 308.127 511.835 303.651 520.762 294.698C529.69 285.745 535.046 273.808 537.427 260.379C537.427 258.14 538.617 257.394 540.998 256.648C540.403 246.949 539.212 242.473 537.427 242.473C532.071 242.473 526.119 246.949 519.572 255.902C513.025 264.855 507.669 273.808 503.503 283.507C499.337 293.206 496.956 300.666 496.956 305.143C496.956 306.635 496.956 307.381 497.551 308.127C496.956 308.127 498.146 308.127 499.337 308.127Z" fill="white"/>
<path d="M644.555 210.391C648.126 210.391 651.102 211.883 654.673 214.867C657.649 217.852 659.434 220.836 659.434 224.566C659.434 230.535 655.268 244.71 647.531 266.346C639.794 287.982 632.057 305.888 625.51 319.317C618.963 332.747 613.607 339.461 610.036 339.461C608.251 339.461 605.275 337.969 601.109 334.239C596.943 330.508 595.157 327.524 593.967 324.54C590.991 314.841 586.825 296.935 582.064 270.823C577.302 244.71 575.517 228.297 575.517 220.836C575.517 213.375 577.302 210.391 580.873 210.391C585.635 210.391 589.801 212.629 595.157 217.106C602.894 224.566 607.655 235.011 608.846 247.695C609.441 253.663 609.441 261.124 610.036 270.077C610.036 279.03 610.631 286.49 611.822 292.459C614.797 284.998 618.963 273.061 623.725 258.14C628.486 243.218 632.652 231.281 635.628 222.328C638.604 214.867 642.175 210.391 644.555 210.391Z" fill="white"/>
<path d="M735.615 279.776C726.687 286.49 717.76 289.474 708.237 289.474C698.715 289.474 690.978 288.728 685.026 287.236C683.836 291.713 683.241 296.189 683.241 300.666C683.241 305.142 683.836 308.126 685.026 310.364C686.217 312.603 689.192 313.349 693.954 313.349C704.071 313.349 712.404 311.857 719.545 309.618C726.687 307.38 730.258 305.888 730.853 305.888C736.21 305.888 739.186 308.126 739.186 312.603C739.186 319.317 735.02 325.286 726.092 331.254C717.76 337.223 707.642 340.207 696.334 340.207C685.026 340.207 676.099 335.731 668.957 326.778C662.41 317.825 658.839 307.38 658.839 295.443C658.839 283.506 661.815 270.823 667.172 257.393C673.123 243.964 679.67 232.773 688.597 223.82C696.929 214.867 705.857 210.391 714.189 210.391C722.521 210.391 730.258 215.614 737.995 226.059C745.137 236.503 748.708 246.948 748.708 257.393C748.708 265.6 744.542 273.061 735.615 279.776ZM721.331 246.202C718.355 243.218 715.974 241.726 713.594 241.726C711.213 241.726 708.237 243.964 704.071 248.441C699.905 252.917 696.334 258.886 692.763 265.6C693.954 265.6 695.739 265.6 698.12 265.6C716.57 265.6 725.497 261.87 725.497 253.663C725.497 251.425 724.307 249.187 721.331 246.202Z" fill="white"/>
<path d="M797.511 151.452C802.867 158.913 805.248 165.628 805.248 172.342C805.248 179.057 804.653 190.994 802.867 208.153C801.082 225.313 799.296 238.742 798.106 249.187C786.798 309.619 779.061 340.208 774.895 340.208C771.919 340.208 768.348 337.224 764.182 331.255C760.016 325.287 757.635 320.064 757.635 316.334C757.635 316.334 759.421 307.381 762.992 290.221C766.563 273.062 770.133 251.426 773.704 224.567C777.275 197.709 779.061 172.342 779.061 147.722C779.061 142.499 780.846 140.261 785.012 140.261C788.583 140.261 792.749 143.991 797.511 151.452Z" fill="white"/>
<path d="M217.233 597.602C217.233 608.793 210.091 617 201.759 617C192.831 617 186.284 608.047 186.284 597.602C186.284 587.157 193.426 578.205 201.759 578.205C210.091 577.459 217.233 586.411 217.233 597.602Z" fill="white"/>
<path d="M65.467 617C74.0131 617 80.9411 608.315 80.9411 597.602C80.9411 586.889 74.0131 578.204 65.467 578.204C56.9209 578.204 49.9929 586.889 49.9929 597.602C49.9929 608.315 56.9209 617 65.467 617Z" fill="white"/>
<path d="M188.07 18.6519H79.7509V149.214H188.07V18.6519Z" stroke="white" stroke-width="3.3659" stroke-miterlimit="10"/>
<path d="M170.215 33.5732H96.4154C93.4397 33.5732 90.4639 30.5889 90.4639 26.1125V7.4607C90.4639 3.73035 92.8445 0 96.4154 0H170.215C173.191 0 176.167 2.98428 176.167 7.4607V26.1125C176.167 30.5889 173.786 33.5732 170.215 33.5732Z" fill="white"/>
<path d="M86.8932 578.204H44.637V596.11H86.8932V578.204Z" fill="white"/>
<path d="M222.589 578.204H180.333V596.11H222.589V578.204Z" fill="white"/>
<path d="M238.063 137.277H29.1627C13.0935 137.277 0 153.69 0 173.834V541.647C0 561.791 13.0935 578.204 29.1627 578.204H238.063C254.132 578.204 267.226 561.791 267.226 541.647V173.834C267.226 153.69 254.132 137.277 238.063 137.277ZM81.5366 475.247C81.5366 483.453 76.1802 489.422 70.2286 489.422C63.6819 489.422 58.9206 482.707 58.9206 475.247V253.664C58.9206 245.457 64.277 239.488 70.2286 239.488C76.7753 239.488 81.5366 246.203 81.5366 253.664V475.247ZM145.218 475.247C145.218 483.453 139.862 489.422 133.91 489.422C127.364 489.422 122.602 482.707 122.602 475.247V253.664C122.602 245.457 127.959 239.488 133.91 239.488C140.457 239.488 145.218 246.203 145.218 253.664V475.247ZM208.305 475.247C208.305 483.453 202.949 489.422 196.997 489.422C191.046 489.422 185.689 482.707 185.689 475.247V253.664C185.689 245.457 191.046 239.488 196.997 239.488C202.949 239.488 208.305 246.203 208.305 253.664V475.247Z" fill="white"/>
<path d="M826.079 469.278C1112.35 469.278 1069.5 149.96 982.01 73.861C920.114 19.3978 786.799 29.8428 702.286 88.0363" stroke="white" stroke-width="3" stroke-linecap="round" stroke-linejoin="round" stroke-dasharray="10.29 10.29"/>
<path d="M717.165 32.0812L706.452 84.3061L748.113 97.7353L726.092 114.149L684.431 100.72L695.144 49.2408L717.165 32.0812Z" fill="white"/>
<path d="M857.028 471.516C857.028 495.391 841.553 514.042 823.104 514.042C804.058 514.042 789.18 494.644 789.18 471.516C789.18 447.642 804.654 428.99 823.104 428.99C841.553 428.244 857.028 447.642 857.028 471.516Z" fill="white"/>
</svg>
